REM DIRINDEX 1\2\4,1\2\5,1\2\6,1\3\7,1\3\8
REM DIRNAME folder01,folder02,folder03,folder04,folder05,folder06,folder07,folder08
TITLE ""
FILE "019_Lesson 16_Output_Stage.mp3" MP3
  TRACK 01 AUDIO
    TITLE "0:"
    INDEX 01 00:00:00
  TRACK 02 AUDIO
    TITLE "8:cjc128_3144"
    INDEX 01 00:00:11
  TRACK 03 AUDIO
    TITLE "0:"
    INDEX 01 00:03:19
  TRACK 04 AUDIO
    TITLE "8:cjc128_3145"
    INDEX 01 00:03:33
  TRACK 05 AUDIO
    TITLE "0:"
    INDEX 01 00:05:24
  TRACK 06 AUDIO
    TITLE "7:cjc128_3146"
    INDEX 01 00:06:06
  TRACK 07 AUDIO
    TITLE "0:"
    INDEX 01 00:08:32
  TRACK 08 AUDIO
    TITLE "8:cjc128_3147"
    INDEX 01 00:11:29
  TRACK 09 AUDIO
    TITLE "0:"
    INDEX 01 00:13:22
  TRACK 10 AUDIO
    TITLE "7:cjc128_3148"
    INDEX 01 00:14:06
  TRACK 11 AUDIO
    TITLE "0:"
    INDEX 01 00:16:34
  TRACK 12 AUDIO
    TITLE "8:cjc128_3149"
    INDEX 01 00:19:30
  TRACK 13 AUDIO
    TITLE "0:"
    INDEX 01 00:21:21
  TRACK 14 AUDIO
    TITLE "7:cjc128_3150"
    INDEX 01 00:22:05
  TRACK 15 AUDIO
    TITLE "0:"
    INDEX 01 00:24:04
  TRACK 16 AUDIO
    TITLE "8:cjc128_3151"
    INDEX 01 00:26:36
  TRACK 17 AUDIO
    TITLE "0:"
    INDEX 01 00:28:35
  TRACK 18 AUDIO
    TITLE "7:cjc128_3152"
    INDEX 01 00:29:15
  TRACK 19 AUDIO
    TITLE "0:"
    INDEX 01 00:31:26
  TRACK 20 AUDIO
    TITLE "8:cjc128_3153"
    INDEX 01 00:33:60
  TRACK 21 AUDIO
    TITLE "0:"
    INDEX 01 00:35:59
  TRACK 22 AUDIO
    TITLE "7:cjc128_3154"
    INDEX 01 00:36:44
  TRACK 23 AUDIO
    TITLE "0:"
    INDEX 01 00:38:04
  TRACK 24 AUDIO
    TITLE "8:cjc128_3155"
    INDEX 01 00:40:03
  TRACK 25 AUDIO
    TITLE "0:"
    INDEX 01 00:42:00
  TRACK 26 AUDIO
    TITLE "7:cjc128_3156"
    INDEX 01 00:42:53
  TRACK 27 AUDIO
    TITLE "0:"
    INDEX 01 00:44:18
  TRACK 28 AUDIO
    TITLE "8:cjc128_3157"
    INDEX 01 00:46:07
  TRACK 29 AUDIO
    TITLE "0:"
    INDEX 01 00:48:04
  TRACK 30 AUDIO
    TITLE "7:cjc128_3158"
    INDEX 01 00:48:57
  TRACK 31 AUDIO
    TITLE "0:"
    INDEX 01 00:50:64
  TRACK 32 AUDIO
    TITLE "8:cjc128_3159"
    INDEX 01 00:53:39
  TRACK 33 AUDIO
    TITLE "0:"
    INDEX 01 00:55:38
  TRACK 34 AUDIO
    TITLE "7:cjc128_3160"
    INDEX 01 00:56:12
  TRACK 35 AUDIO
    TITLE "0:"
    INDEX 01 00:57:54
  TRACK 36 AUDIO
    TITLE "8:cjc128_3161"
    INDEX 01 00:59:49
  TRACK 37 AUDIO
    TITLE "0:"
    INDEX 01 01:01:29
  TRACK 38 AUDIO
    TITLE "7:cjc128_3162"
    INDEX 01 01:02:08
  TRACK 39 AUDIO
    TITLE "0:"
    INDEX 01 01:03:63
  TRACK 40 AUDIO
    TITLE "8:cjc128_3163"
    INDEX 01 01:05:73
  TRACK 41 AUDIO
    TITLE "0:"
    INDEX 01 01:07:68
  TRACK 42 AUDIO
    TITLE "7:cjc128_3164"
    INDEX 01 01:08:48
  TRACK 43 AUDIO
    TITLE "0:"
    INDEX 01 01:10:71
  TRACK 44 AUDIO
    TITLE "8:cjc128_3165"
    INDEX 01 01:13:38
  TRACK 45 AUDIO
    TITLE "0:"
    INDEX 01 01:15:37
  TRACK 46 AUDIO
    TITLE "7:cjc128_3166"
    INDEX 01 01:16:18
  TRACK 47 AUDIO
    TITLE "0:"
    INDEX 01 01:19:01
  TRACK 48 AUDIO
    TITLE "8:cjc128_3167"
    INDEX 01 01:22:07
  TRACK 49 AUDIO
    TITLE "0:"
    INDEX 01 01:24:08
  TRACK 50 AUDIO
    TITLE "7:cjc128_3168"
    INDEX 01 01:24:67
  TRACK 51 AUDIO
    TITLE "0:"
    INDEX 01 01:27:50
  TRACK 52 AUDIO
    TITLE "8:cjc128_3169"
    INDEX 01 01:30:54
  TRACK 53 AUDIO
    TITLE "0:"
    INDEX 01 01:32:53
  TRACK 54 AUDIO
    TITLE "7:cjc128_3170"
    INDEX 01 01:33:34
  TRACK 55 AUDIO
    TITLE "0:"
    INDEX 01 01:35:53
  TRACK 56 AUDIO
    TITLE "8:cjc128_3171"
    INDEX 01 01:38:20
  TRACK 57 AUDIO
    TITLE "0:"
    INDEX 01 01:40:29
  TRACK 58 AUDIO
    TITLE "7:cjc128_3172"
    INDEX 01 01:41:03
  TRACK 59 AUDIO
    TITLE "0:"
    INDEX 01 01:42:65
  TRACK 60 AUDIO
    TITLE "8:cjc128_3173"
    INDEX 01 01:45:14
  TRACK 61 AUDIO
    TITLE "0:"
    INDEX 01 01:47:15
  TRACK 62 AUDIO
    TITLE "7:cjc128_3174"
    INDEX 01 01:47:64
  TRACK 63 AUDIO
    TITLE "0:"
    INDEX 01 01:50:43
  TRACK 64 AUDIO
    TITLE "8:cjc128_3175"
    INDEX 01 01:53:57
  TRACK 65 AUDIO
    TITLE "0:"
    INDEX 01 01:55:58
  TRACK 66 AUDIO
    TITLE "7:cjc128_3176"
    INDEX 01 01:56:18
  TRACK 67 AUDIO
    TITLE "0:"
    INDEX 01 01:58:38
  TRACK 68 AUDIO
    TITLE "8:cjc128_3177"
    INDEX 01 02:00:71
  TRACK 69 AUDIO
    TITLE "0:"
    INDEX 01 02:02:66
  TRACK 70 AUDIO
    TITLE "7:cjc128_3178"
    INDEX 01 02:03:41
  TRACK 71 AUDIO
    TITLE "0:"
    INDEX 01 02:05:52
  TRACK 72 AUDIO
    TITLE "8:cjc128_3179"
    INDEX 01 02:08:09
  TRACK 73 AUDIO
    TITLE "0:"
    INDEX 01 02:10:10
  TRACK 74 AUDIO
    TITLE "7:cjc128_3180"
    INDEX 01 02:10:63
  TRACK 75 AUDIO
    TITLE "0:"
    INDEX 01 02:13:05
  TRACK 76 AUDIO
    TITLE "8:cjc128_3181"
    INDEX 01 02:15:64
  TRACK 77 AUDIO
    TITLE "0:"
    INDEX 01 02:17:47
  TRACK 78 AUDIO
    TITLE "7:cjc128_3182"
    INDEX 01 02:18:29
  TRACK 79 AUDIO
    TITLE "0:"
    INDEX 01 02:21:39
  TRACK 80 AUDIO
    TITLE "8:cjc128_3183"
    INDEX 01 02:25:12
  TRACK 81 AUDIO
    TITLE "0:"
    INDEX 01 02:27:16
  TRACK 82 AUDIO
    TITLE "7:cjc128_3184"
    INDEX 01 02:27:71
  TRACK 83 AUDIO
    TITLE "0:"
    INDEX 01 02:30:23
  TRACK 84 AUDIO
    TITLE "8:cjc128_3185"
    INDEX 01 02:33:07
  TRACK 85 AUDIO
    TITLE "0:"
    INDEX 01 02:35:04
  TRACK 86 AUDIO
    TITLE "7:cjc128_3186"
    INDEX 01 02:35:65
  TRACK 87 AUDIO
    TITLE "0:"
    INDEX 01 02:38:55
  TRACK 88 AUDIO
    TITLE "8:cjc128_3187"
    INDEX 01 02:42:04
  TRACK 89 AUDIO
    TITLE "0:"
    INDEX 01 02:44:07
  TRACK 90 AUDIO
    TITLE "7:cjc128_3188"
    INDEX 01 02:44:66
  TRACK 91 AUDIO
    TITLE "0:"
    INDEX 01 02:47:21
  TRACK 92 AUDIO
    TITLE "8:cjc128_3189"
    INDEX 01 02:50:00
  TRACK 93 AUDIO
    TITLE "0:"
    INDEX 01 02:51:74
  TRACK 94 AUDIO
    TITLE "7:cjc128_3190"
    INDEX 01 02:52:60
  TRACK 95 AUDIO
    TITLE "0:"
    INDEX 01 02:55:25
  TRACK 96 AUDIO
    TITLE "8:cjc128_3191"
    INDEX 01 02:58:19
  TRACK 97 AUDIO
    TITLE "0:"
    INDEX 01 03:00:26
  TRACK 98 AUDIO
    TITLE "7:cjc128_3192"
    INDEX 01 03:01:02
  TRACK 99 AUDIO
    TITLE "0:"
    INDEX 01 03:04:18
  TRACK 100 AUDIO
    TITLE "8:cjc128_3193"
    INDEX 01 03:07:65
  TRACK 101 AUDIO
    TITLE "0:"
    INDEX 01 03:10:01
  TRACK 102 AUDIO
    TITLE "7:cjc128_3194"
    INDEX 01 03:10:55
  TRACK 103 AUDIO
    TITLE "0:"
    INDEX 01 03:13:30
  TRACK 104 AUDIO
    TITLE "8:cjc128_3195"
    INDEX 01 03:16:29
  TRACK 105 AUDIO
    TITLE "0:"
    INDEX 01 03:18:37
  TRACK 106 AUDIO
    TITLE "7:cjc128_3196"
    INDEX 01 03:19:09
  TRACK 107 AUDIO
    TITLE "0:"
    INDEX 01 03:23:19
  TRACK 108 AUDIO
    TITLE "8:cjc128_3197"
    INDEX 01 03:27:48
  TRACK 109 AUDIO
    TITLE "0:"
    INDEX 01 03:29:41
  TRACK 110 AUDIO
    TITLE "7:cjc128_3198"
    INDEX 01 03:30:21
  TRACK 111 AUDIO
    TITLE "0:"
    INDEX 01 03:32:67
  TRACK 112 AUDIO
    TITLE "8:cjc128_3199"
    INDEX 01 03:35:57
  TRACK 113 AUDIO
    TITLE "0:"
    INDEX 01 03:37:62
  TRACK 114 AUDIO
    TITLE "7:cjc128_3200"
    INDEX 01 03:38:38
  TRACK 115 AUDIO
    TITLE "0:"
    INDEX 01 03:41:19
  TRACK 116 AUDIO
    TITLE "8:cjc128_3201"
    INDEX 01 03:44:33
  TRACK 117 AUDIO
    TITLE "0:"
    INDEX 01 03:46:02
  TRACK 118 AUDIO
    TITLE "7:cjc128_3202"
    INDEX 01 03:46:63
  TRACK 119 AUDIO
    TITLE "0:"
    INDEX 01 03:49:56
  TRACK 120 AUDIO
    TITLE "8:cjc128_3203"
    INDEX 01 03:53:12
  TRACK 121 AUDIO
    TITLE "0:"
    INDEX 01 03:54:72
  TRACK 122 AUDIO
    TITLE "7:cjc128_3204"
    INDEX 01 03:55:54
  TRACK 123 AUDIO
    TITLE "0:"
    INDEX 01 03:59:01
  TRACK 124 AUDIO
    TITLE "8:cjc128_3205"
    INDEX 01 04:02:46
  TRACK 125 AUDIO
    TITLE "0:"
    INDEX 01 04:04:57
  TRACK 126 AUDIO
    TITLE "7:cjc128_3206"
    INDEX 01 04:05:39
  TRACK 127 AUDIO
    TITLE "0:"
    INDEX 01 04:09:33
  TRACK 128 AUDIO
    TITLE "8:cjc128_3207"
    INDEX 01 04:13:50
  TRACK 129 AUDIO
    TITLE "0:"
    INDEX 01 04:15:41
  TRACK 130 AUDIO
    TITLE "7:cjc128_3208"
    INDEX 01 04:16:11
  TRACK 131 AUDIO
    TITLE "0:"
    INDEX 01 04:18:30
  TRACK 132 AUDIO
    TITLE "8:cjc128_3209"
    INDEX 01 04:20:72
  TRACK 133 AUDIO
    TITLE "0:"
    INDEX 01 04:22:65
  TRACK 134 AUDIO
    TITLE "7:cjc128_3210"
    INDEX 01 04:23:45
  TRACK 135 AUDIO
    TITLE "0:"
    INDEX 01 04:25:61
  TRACK 136 AUDIO
    TITLE "8:cjc128_3211"
    INDEX 01 04:28:24
  TRACK 137 AUDIO
    TITLE "0:"
    INDEX 01 04:30:21
  TRACK 138 AUDIO
    TITLE "7:cjc128_3212"
    INDEX 01 04:31:07
  TRACK 139 AUDIO
    TITLE "0:"
    INDEX 01 04:33:04
  TRACK 140 AUDIO
    TITLE "8:cjc128_3213"
    INDEX 01 04:35:22
  TRACK 141 AUDIO
    TITLE "0:"
    INDEX 01 04:37:23
  TRACK 142 AUDIO
    TITLE "7:cjc128_3214"
    INDEX 01 04:37:74
  TRACK 143 AUDIO
    TITLE "0:"
    INDEX 01 04:40:27
